<?xml version="1.0" encoding="UTF-8" ?>
<svg version="1.1" width="30" height="30" xmlns="http://www.w3.org/2000/svg" shape-rendering="crispEdges">
<rect x="10" y="0" width="1" height="1" fill="#645550" opacity="0.627451" />
<rect x="11" y="0" width="1" height="1" fill="#432B20" />
<rect x="12" y="0" width="1" height="1" fill="#968F8C" opacity="0.721569" />
<rect x="13" y="0" width="1" height="1" fill="#432B20" opacity="0.498039" />
<rect x="8" y="1" width="1" height="1" fill="#432B20" opacity="0.031373" />
<rect x="9" y="1" width="1" height="1" fill="#432B20" opacity="0.925490" />
<rect x="10" y="1" width="1" height="1" fill="#B2B1B1" opacity="0.737255" />
<rect x="11" y="1" width="1" height="1" fill="#FBFBFB" opacity="0.921569" />
<rect x="12" y="1" width="1" height="1" fill="#878282" opacity="0.780392" />
<rect x="13" y="1" width="1" height="1" fill="#9E9895" opacity="0.803922" />
<rect x="14" y="1" width="1" height="1" fill="#493227" opacity="0.145098" />
<rect x="8" y="2" width="1" height="1" fill="#61514A" opacity="0.690196" />
<rect x="9" y="2" width="1" height="1" fill="#B3B2B2" opacity="0.854902" />
<rect x="10" y="2" width="1" height="1" fill="#969494" opacity="0.717647" />
<rect x="11" y="2" width="1" height="1" fill="#838081" opacity="0.858824" />
<rect x="12" y="2" width="1" height="1" fill="#85807F" opacity="0.890196" />
<rect x="13" y="2" width="1" height="1" fill="#64554F" opacity="0.764706" />
<rect x="14" y="2" width="1" height="1" fill="#A29C9A" opacity="0.823529" />
<rect x="3" y="3" width="1" height="1" fill="#432B20" opacity="0.219608" />
<rect x="4" y="3" width="1" height="1" fill="#4D2A21" opacity="0.827451" />
<rect x="5" y="3" width="1" height="1" fill="#846F14" opacity="0.803922" />
<rect x="6" y="3" width="1" height="1" fill="#432B20" opacity="0.172549" />
<rect x="7" y="3" width="1" height="1" fill="#4D372E" opacity="0.733333" />
<rect x="8" y="3" width="1" height="1" fill="#AFAEAE" opacity="0.709804" />
<rect x="9" y="3" width="1" height="1" fill="#ECECEC" opacity="0.796078" />
<rect x="10" y="3" width="1" height="1" fill="#817F7F" opacity="0.701961" />
<rect x="11" y="3" width="1" height="1" fill="#BDBCBC" />
<rect x="12" y="3" width="1" height="1" fill="#ACABAB" opacity="0.752941" />
<rect x="13" y="3" width="1" height="1" fill="#847E7D" opacity="0.882353" />
<rect x="14" y="3" width="1" height="1" fill="#868181" opacity="0.776471" />
<rect x="15" y="3" width="1" height="1" fill="#533D34" opacity="0.725490" />
<rect x="16" y="3" width="1" height="1" fill="#432B20" opacity="0.039216" />
<rect x="3" y="4" width="1" height="1" fill="#432B20" opacity="0.752941" />
<rect x="4" y="4" width="1" height="1" fill="#71461B" opacity="0.835294" />
<rect x="5" y="4" width="1" height="1" fill="#F7960F" />
<rect x="6" y="4" width="1" height="1" fill="#988511" opacity="0.760784" />
<rect x="7" y="4" width="1" height="1" fill="#BCBBBB" opacity="0.898039" />
<rect x="8" y="4" width="1" height="1" fill="#B0AFAF" opacity="0.776471" />
<rect x="9" y="4" width="1" height="1" fill="#918F90" />
<rect x="10" y="4" width="1" height="1" fill="#BDBCBC" />
<rect x="11" y="4" width="1" height="1" fill="#BDBCBC" />
<rect x="12" y="4" width="1" height="1" fill="#BDBCBC" />
<rect x="13" y="4" width="1" height="1" fill="#918F90" />
<rect x="14" y="4" width="1" height="1" fill="#918F90" />
<rect x="15" y="4" width="1" height="1" fill="#8F8D8E" opacity="0.886275" />
<rect x="16" y="4" width="1" height="1" fill="#432B20" opacity="0.133333" />
<rect x="3" y="5" width="1" height="1" fill="#432B20" opacity="0.388235" />
<rect x="4" y="5" width="1" height="1" fill="#AD5A1D" opacity="0.768627" />
<rect x="5" y="5" width="1" height="1" fill="#BC7214" opacity="0.741176" />
<rect x="6" y="5" width="1" height="1" fill="#857D7B" opacity="0.694118" />
<rect x="7" y="5" width="1" height="1" fill="#C3C3C3" opacity="0.729412" />
<rect x="8" y="5" width="1" height="1" fill="#828181" opacity="0.694118" />
<rect x="9" y="5" width="1" height="1" fill="#D1D1D1" opacity="0.752941" />
<rect x="10" y="5" width="1" height="1" fill="#CFCFCF" opacity="0.827451" />
<rect x="11" y="5" width="1" height="1" fill="#BDBCBC" />
<rect x="12" y="5" width="1" height="1" fill="#B6B5B6" opacity="0.701961" />
<rect x="13" y="5" width="1" height="1" fill="#CCCBCC" opacity="0.760784" />
<rect x="14" y="5" width="1" height="1" fill="#686666" opacity="0.756863" />
<rect x="15" y="5" width="1" height="1" fill="#45322A" opacity="0.760784" />
<rect x="16" y="5" width="1" height="1" fill="#432B20" opacity="0.133333" />
<rect x="4" y="6" width="1" height="1" fill="#432B20" opacity="0.215686" />
<rect x="5" y="6" width="1" height="1" fill="#908E8F" opacity="0.956863" />
<rect x="6" y="6" width="1" height="1" fill="#E1E0E0" opacity="0.760784" />
<rect x="7" y="6" width="1" height="1" fill="#8F8D8E" opacity="0.898039" />
<rect x="8" y="6" width="1" height="1" fill="#DAD9D9" opacity="0.776471" />
<rect x="9" y="6" width="1" height="1" fill="#BDBCBC" />
<rect x="10" y="6" width="1" height="1" fill="#BDBCBC" />
<rect x="11" y="6" width="1" height="1" fill="#918F90" opacity="0.996078" />
<rect x="12" y="6" width="1" height="1" fill="#B4B3B4" opacity="0.807843" />
<rect x="13" y="6" width="1" height="1" fill="#807E7F" opacity="0.839216" />
<rect x="14" y="6" width="1" height="1" fill="#4F4C4C" />
<rect x="15" y="6" width="1" height="1" fill="#432B20" opacity="0.870588" />
<rect x="3" y="7" width="1" height="1" fill="#432B20" opacity="0.517647" />
<rect x="4" y="7" width="1" height="1" fill="#837C7A" opacity="0.729412" />
<rect x="5" y="7" width="1" height="1" fill="#E3E3E3" opacity="0.772549" />
<rect x="6" y="7" width="1" height="1" fill="#827F80" opacity="0.701961" />
<rect x="7" y="7" width="1" height="1" fill="#E2E2E2" opacity="0.752941" />
<rect x="8" y="7" width="1" height="1" fill="#CDCCCC" opacity="0.843137" />
<rect x="9" y="7" width="1" height="1" fill="#BDBCBC" />
<rect x="10" y="7" width="1" height="1" fill="#C6C5C5" opacity="0.698039" />
<rect x="11" y="7" width="1" height="1" fill="#BCBBBC" opacity="0.788235" />
<rect x="12" y="7" width="1" height="1" fill="#646161" opacity="0.752941" />
<rect x="13" y="7" width="1" height="1" fill="#4F4C4C" />
<rect x="14" y="7" width="1" height="1" fill="#443027" opacity="0.772549" />
<rect x="2" y="8" width="1" height="1" fill="#432C21" opacity="0.176471" />
<rect x="3" y="8" width="1" height="1" fill="#8C8888" opacity="0.756863" />
<rect x="4" y="8" width="1" height="1" fill="#CBCACA" opacity="0.772549" />
<rect x="5" y="8" width="1" height="1" fill="#524F4F" opacity="0.847059" />
<rect x="6" y="8" width="1" height="1" fill="#9F9E9E" opacity="0.752941" />
<rect x="7" y="8" width="1" height="1" fill="#BDBCBC" />
<rect x="8" y="8" width="1" height="1" fill="#BCBBBB" opacity="0.956863" />
<rect x="9" y="8" width="1" height="1" fill="#918F90" />
<rect x="10" y="8" width="1" height="1" fill="#918F90" />
<rect x="11" y="8" width="1" height="1" fill="#848283" opacity="0.870588" />
<rect x="12" y="8" width="1" height="1" fill="#4F4C4C" />
<rect x="13" y="8" width="1" height="1" fill="#493F3B" opacity="0.764706" />
<rect x="14" y="8" width="1" height="1" fill="#432B20" opacity="0.054902" />
<rect x="1" y="9" width="1" height="1" fill="#432B20" opacity="0.498039" />
<rect x="2" y="9" width="1" height="1" fill="#888383" opacity="0.894118" />
<rect x="3" y="9" width="1" height="1" fill="#F0F0F0" opacity="0.768627" />
<rect x="4" y="9" width="1" height="1" fill="#6C6A6A" opacity="0.788235" />
<rect x="5" y="9" width="1" height="1" fill="#B6B5B5" opacity="0.874510" />
<rect x="6" y="9" width="1" height="1" fill="#EBEAEA" opacity="0.752941" />
<rect x="7" y="9" width="1" height="1" fill="#BDBCBC" />
<rect x="8" y="9" width="1" height="1" fill="#BFBEBF" opacity="0.749020" />
<rect x="9" y="9" width="1" height="1" fill="#918F90" />
<rect x="10" y="9" width="1" height="1" fill="#666364" opacity="0.752941" />
<rect x="11" y="9" width="1" height="1" fill="#4F4C4C" />
<rect x="12" y="9" width="1" height="1" fill="#442F26" opacity="0.780392" />
<rect x="13" y="9" width="1" height="1" fill="#432B20" opacity="0.090196" />
<rect x="0" y="10" width="1" height="1" fill="#432B20" />
<rect x="1" y="10" width="1" height="1" fill="#4F4C4C" opacity="0.921569" />
<rect x="2" y="10" width="1" height="1" fill="#E9E8E8" opacity="0.909804" />
<rect x="3" y="10" width="1" height="1" fill="#8C8A8B" opacity="0.827451" />
<rect x="4" y="10" width="1" height="1" fill="#BDBCBC" opacity="0.937255" />
<rect x="5" y="10" width="1" height="1" fill="#BDBCBC" />
<rect x="6" y="10" width="1" height="1" fill="#BBBABA" opacity="0.968627" />
<rect x="7" y="10" width="1" height="1" fill="#FAFAFA" opacity="0.843137" />
<rect x="8" y="10" width="1" height="1" fill="#8E8C8D" opacity="0.976471" />
<rect x="9" y="10" width="1" height="1" fill="#4F4C4C" />
<rect x="10" y="10" width="1" height="1" fill="#4E4A49" opacity="0.960784" />
<rect x="11" y="10" width="1" height="1" fill="#56361E" opacity="0.917647" />
<rect x="12" y="10" width="1" height="1" fill="#8E5718" opacity="0.784314" />
<rect x="13" y="10" width="1" height="1" fill="#432B20" opacity="0.074510" />
<rect x="0" y="11" width="1" height="1" fill="#432B20" />
<rect x="1" y="11" width="1" height="1" fill="#7A6B64" opacity="0.717647" />
<rect x="2" y="11" width="1" height="1" fill="#4F4C4C" />
<rect x="3" y="11" width="1" height="1" fill="#807E7F" opacity="0.843137" />
<rect x="4" y="11" width="1" height="1" fill="#BBBABB" opacity="0.764706" />
<rect x="5" y="11" width="1" height="1" fill="#BDBCBC" opacity="0.964706" />
<rect x="6" y="11" width="1" height="1" fill="#C5C3C4" opacity="0.721569" />
<rect x="7" y="11" width="1" height="1" fill="#939192" opacity="0.984314" />
<rect x="8" y="11" width="1" height="1" fill="#4F4C4C" opacity="0.901961" />
<rect x="9" y="11" width="1" height="1" fill="#4F4C4C" />
<rect x="10" y="11" width="1" height="1" fill="#8E4C1F" opacity="0.717647" />
<rect x="11" y="11" width="1" height="1" fill="#D17019" opacity="0.854902" />
<rect x="12" y="11" width="1" height="1" fill="#F7960F" />
<rect x="13" y="11" width="1" height="1" fill="#B7A60B" opacity="0.756863" />
<rect x="14" y="11" width="1" height="1" fill="#432B20" opacity="0.054902" />
<rect x="0" y="12" width="1" height="1" fill="#432B20" opacity="0.709804" />
<rect x="1" y="12" width="1" height="1" fill="#A4A1A1" opacity="0.701961" />
<rect x="2" y="12" width="1" height="1" fill="#4F3930" opacity="0.788235" />
<rect x="3" y="12" width="1" height="1" fill="#4E4B4B" opacity="0.937255" />
<rect x="4" y="12" width="1" height="1" fill="#7E7C7C" opacity="0.827451" />
<rect x="5" y="12" width="1" height="1" fill="#B7B6B6" opacity="0.803922" />
<rect x="6" y="12" width="1" height="1" fill="#918F90" />
<rect x="7" y="12" width="1" height="1" fill="#4F4C4C" opacity="0.929412" />
<rect x="8" y="12" width="1" height="1" fill="#4D4847" opacity="0.913725" />
<rect x="9" y="12" width="1" height="1" fill="#432B20" opacity="0.709804" />
<rect x="10" y="12" width="1" height="1" fill="#432B20" opacity="0.388235" />
<rect x="11" y="12" width="1" height="1" fill="#96501E" opacity="0.796078" />
<rect x="12" y="12" width="1" height="1" fill="#E88713" opacity="0.752941" />
<rect x="13" y="12" width="1" height="1" fill="#F7980E" opacity="0.882353" />
<rect x="14" y="12" width="1" height="1" fill="#5F481A" opacity="0.776471" />
<rect x="1" y="13" width="1" height="1" fill="#432B20" opacity="0.556863" />
<rect x="2" y="13" width="1" height="1" fill="#918F90" opacity="0.984314" />
<rect x="3" y="13" width="1" height="1" fill="#4C362C" opacity="0.815686" />
<rect x="4" y="13" width="1" height="1" fill="#4F4C4C" />
<rect x="5" y="13" width="1" height="1" fill="#8D8B8C" opacity="0.956863" />
<rect x="6" y="13" width="1" height="1" fill="#6C6A6A" opacity="0.760784" />
<rect x="7" y="13" width="1" height="1" fill="#4F4C4C" />
<rect x="8" y="13" width="1" height="1" fill="#432B20" opacity="0.658824" />
<rect x="11" y="13" width="1" height="1" fill="#432B20" opacity="0.007843" />
<rect x="12" y="13" width="1" height="1" fill="#9C521D" opacity="0.807843" />
<rect x="13" y="13" width="1" height="1" fill="#D27119" opacity="0.839216" />
<rect x="14" y="13" width="1" height="1" fill="#F7960F" />
<rect x="15" y="13" width="1" height="1" fill="#432B20" opacity="0.870588" />
<rect x="2" y="14" width="1" height="1" fill="#442D22" opacity="0.509804" />
<rect x="3" y="14" width="1" height="1" fill="#A3A1A1" opacity="0.705882" />
<rect x="4" y="14" width="1" height="1" fill="#63544D" opacity="0.709804" />
<rect x="5" y="14" width="1" height="1" fill="#4F4C4C" opacity="0.980392" />
<rect x="6" y="14" width="1" height="1" fill="#4F4C4C" />
<rect x="7" y="14" width="1" height="1" fill="#432C22" opacity="0.517647" />
<rect x="12" y="14" width="1" height="1" fill="#432B20" opacity="0.376471" />
<rect x="13" y="14" width="1" height="1" fill="#82471E" opacity="0.764706" />
<rect x="14" y="14" width="1" height="1" fill="#E58414" opacity="0.752941" />
<rect x="15" y="14" width="1" height="1" fill="#EFAF0A" opacity="0.721569" />
<rect x="16" y="14" width="1" height="1" fill="#4F381D" opacity="0.505882" />
<rect x="3" y="15" width="1" height="1" fill="#432B20" opacity="0.752941" />
<rect x="4" y="15" width="1" height="1" fill="#9C9A9B" opacity="0.835294" />
<rect x="5" y="15" width="1" height="1" fill="#493228" opacity="0.956863" />
<rect x="6" y="15" width="1" height="1" fill="#483933" opacity="0.760784" />
<rect x="13" y="15" width="1" height="1" fill="#432B20" opacity="0.203922" />
<rect x="14" y="15" width="1" height="1" fill="#BE621D" opacity="0.945098" />
<rect x="15" y="15" width="1" height="1" fill="#F7960F" />
<rect x="16" y="15" width="1" height="1" fill="#FDE402" opacity="0.886275" />
<rect x="17" y="15" width="1" height="1" fill="#432B20" opacity="0.670588" />
<rect x="4" y="16" width="1" height="1" fill="#432B20" opacity="0.309804" />
<rect x="5" y="16" width="1" height="1" fill="#432B20" opacity="0.309804" />
<rect x="6" y="16" width="1" height="1" fill="#432B20" opacity="0.184314" />
<rect x="14" y="16" width="1" height="1" fill="#432B20" opacity="0.294118" />
<rect x="15" y="16" width="1" height="1" fill="#C9681C" opacity="0.964706" />
<rect x="16" y="16" width="1" height="1" fill="#F6950F" opacity="0.921569" />
<rect x="17" y="16" width="1" height="1" fill="#EAA50C" opacity="0.709804" />
<rect x="18" y="16" width="1" height="1" fill="#432B20" opacity="0.694118" />
<rect x="15" y="17" width="1" height="1" fill="#472C1F" opacity="0.768627" />
<rect x="16" y="17" width="1" height="1" fill="#C3641D" opacity="0.984314" />
<rect x="17" y="17" width="1" height="1" fill="#F6950F" opacity="0.909804" />
<rect x="18" y="17" width="1" height="1" fill="#FDE002" opacity="0.866667" />
<rect x="19" y="17" width="1" height="1" fill="#523B1C" opacity="0.494118" />
<rect x="15" y="18" width="1" height="1" fill="#432B20" opacity="0.015686" />
<rect x="16" y="18" width="1" height="1" fill="#462C1F" opacity="0.800000" />
<rect x="17" y="18" width="1" height="1" fill="#C8671C" opacity="0.968627" />
<rect x="18" y="18" width="1" height="1" fill="#F7960F" />
<rect x="19" y="18" width="1" height="1" fill="#F1B209" opacity="0.729412" />
<rect x="20" y="18" width="1" height="1" fill="#432B20" opacity="0.894118" />
<rect x="17" y="19" width="1" height="1" fill="#432B20" opacity="0.305882" />
<rect x="18" y="19" width="1" height="1" fill="#B95F1D" opacity="0.917647" />
<rect x="19" y="19" width="1" height="1" fill="#E58414" opacity="0.752941" />
<rect x="20" y="19" width="1" height="1" fill="#F7960F" />
<rect x="21" y="19" width="1" height="1" fill="#61471A" opacity="0.772549" />
<rect x="18" y="20" width="1" height="1" fill="#432B20" opacity="0.172549" />
<rect x="19" y="20" width="1" height="1" fill="#82471E" opacity="0.764706" />
<rect x="20" y="20" width="1" height="1" fill="#D06F1A" opacity="0.858824" />
<rect x="21" y="20" width="1" height="1" fill="#F7970E" opacity="0.898039" />
<rect x="22" y="20" width="1" height="1" fill="#432B20" opacity="0.831373" />
<rect x="19" y="21" width="1" height="1" fill="#432B20" opacity="0.376471" />
<rect x="20" y="21" width="1" height="1" fill="#96501E" opacity="0.796078" />
<rect x="21" y="21" width="1" height="1" fill="#E88713" opacity="0.752941" />
<rect x="22" y="21" width="1" height="1" fill="#FCD005" opacity="0.796078" />
<rect x="23" y="21" width="1" height="1" fill="#5C451B" opacity="0.458824" />
<rect x="21" y="22" width="1" height="1" fill="#99511E" opacity="0.803922" />
<rect x="22" y="22" width="1" height="1" fill="#F7960F" />
<rect x="23" y="22" width="1" height="1" fill="#FBC906" opacity="0.776471" />
<rect x="24" y="22" width="1" height="1" fill="#432B20" opacity="0.882353" />
<rect x="21" y="23" width="1" height="1" fill="#432B20" opacity="0.372549" />
<rect x="22" y="23" width="1" height="1" fill="#C7661D" />
<rect x="23" y="23" width="1" height="1" fill="#F5940F" opacity="0.862745" />
<rect x="24" y="23" width="1" height="1" fill="#F0B10A" opacity="0.729412" />
<rect x="25" y="23" width="1" height="1" fill="#523A1D" opacity="0.509804" />
<rect x="22" y="24" width="1" height="1" fill="#432B20" />
<rect x="23" y="24" width="1" height="1" fill="#C7661D" />
<rect x="24" y="24" width="1" height="1" fill="#F7960F" />
<rect x="25" y="24" width="1" height="1" fill="#FDE202" opacity="0.878431" />
<rect x="26" y="24" width="1" height="1" fill="#432B20" opacity="0.682353" />
<rect x="23" y="25" width="1" height="1" fill="#58341F" opacity="0.615686" />
<rect x="24" y="25" width="1" height="1" fill="#C8671C" opacity="0.968627" />
<rect x="25" y="25" width="1" height="1" fill="#F6950F" opacity="0.913725" />
<rect x="26" y="25" width="1" height="1" fill="#70461B" opacity="0.839216" />
<rect x="27" y="25" width="1" height="1" fill="#432B20" opacity="0.698039" />
<rect x="28" y="25" width="1" height="1" fill="#432B20" opacity="0.341176" />
<rect x="24" y="26" width="1" height="1" fill="#462C1F" opacity="0.772549" />
<rect x="25" y="26" width="1" height="1" fill="#452C1F" opacity="0.898039" />
<rect x="26" y="26" width="1" height="1" fill="#9A252F" opacity="0.741176" />
<rect x="27" y="26" width="1" height="1" fill="#FFFFFF" />
<rect x="28" y="26" width="1" height="1" fill="#793238" opacity="0.752941" />
<rect x="24" y="27" width="1" height="1" fill="#432B20" opacity="0.015686" />
<rect x="25" y="27" width="1" height="1" fill="#432B20" opacity="0.874510" />
<rect x="26" y="27" width="1" height="1" fill="#C31C33" opacity="0.752941" />
<rect x="27" y="27" width="1" height="1" fill="#ED394F" opacity="0.909804" />
<rect x="28" y="27" width="1" height="1" fill="#752829" opacity="0.741176" />
<rect x="25" y="28" width="1" height="1" fill="#432B20" opacity="0.545098" />
<rect x="26" y="28" width="1" height="1" fill="#732126" opacity="0.772549" />
<rect x="27" y="28" width="1" height="1" fill="#732126" opacity="0.772549" />
<rect x="28" y="28" width="1" height="1" fill="#5B2523" opacity="0.623529" />
</svg>