<?xml version="1.0" encoding="UTF-8" standalone="no"?><!DOCTYPE svg PUBLIC "-//W3C//DTD SVG 1.1//EN" "http://www.w3.org/Graphics/SVG/1.1/DTD/svg11.dtd"><svg width="100%" height="100%" viewBox="0 0 1508 1699" version="1.1" xmlns="http://www.w3.org/2000/svg" xmlns:xlink="http://www.w3.org/1999/xlink" xml:space="preserve" xmlns:serif="http://www.serif.com/" style="fill-rule:evenodd;clip-rule:evenodd;stroke-linejoin:round;stroke-miterlimit:2;"><g id="Paper"><path d="M744.521,726.412c-0.542,-2.245 -1.042,-4.487 -1.584,-6.783c1,2.442 1.959,4.588 2.834,6.421c-0.417,0.117 -0.833,0.238 -1.25,0.362Zm693.334,634.509c27.328,-47.608 47.416,-103.329 58.536,-160.387c10.671,-57.196 12.375,-115.196 9.63,-168.863c-2.541,-26.725 -4,-52.679 -8.75,-76.737c-2.046,-12.063 -4.046,-23.8 -6.004,-35.146c-2.038,-11.805 -5.251,-22.913 -8.246,-33.254c-2.255,-7.497 -4.625,-14.596 -7.042,-21.496c-0.041,-1.284 -0.167,-2.638 -0.125,-3.88l0.167,-4.403l0.417,-5.668c0.245,-3.841 0.541,-7.733 0.833,-11.662c4.209,-62.704 7.833,-135.204 14.542,-212.612c3.208,-38.596 7.662,-78.738 10.703,-120.284c2.922,-41.558 5.209,-84.212 1.084,-128.604c-1.084,-11.096 -2.621,-22.333 -5.125,-33.758c-2.496,-11.417 -5.621,-23.005 -10.954,-34.775c-5.292,-11.663 -12.625,-23.837 -24.209,-34.017c-11.333,-10.313 -27.582,-16.683 -41.916,-17.904c-13.334,-1.625 -28.125,-0.041 -41.375,4.921c-13.333,4.9 -24.75,12.87 -33.875,21.629c-9.25,8.788 -16.458,18.408 -22.417,28.079c-6.083,9.667 -11,19.467 -15.291,29.213c-16.875,39.049 -25.334,77.141 -32.459,113.041c-6.542,34.288 -11.083,66.621 -15.041,96.583c-0.959,-27.949 -2.334,-57.575 -4.084,-88.687c-2.166,-37.679 -4.625,-77.491 -8.791,-118.966c-4.25,-41.446 -10,-84.476 -20.917,-128.346c-5.75,-21.926 -12.542,-44.117 -23.375,-66.196c-5.333,-11.017 -11.792,-22.05 -20.417,-32.567c-8.5,-10.433 -19.458,-20.6 -33.5,-27.554c-13.833,-7.092 -31,-9.671 -45.208,-8.225c-14,1.046 -28.875,4.954 -41.708,12.521c-12.875,7.391 -23.459,17.554 -31.625,28.292c-8.334,10.774 -14.334,22.191 -19.126,33.503c-0.958,2.213 -1.666,4.413 -2.5,6.626c-0.791,-3.434 -1.5,-6.863 -2.374,-10.313c-5.917,-23.471 -13.5,-47.4 -27,-70.962c-6.792,-11.696 -15.292,-23.454 -27.209,-33.567c-11.708,-10.137 -27.541,-18.004 -44,-20.213c-4,-0.387 -8.166,-0.799 -12.125,-0.937l-11.208,0.488c-7.542,0.85 -15.167,2.045 -22.584,4.612c-14.833,4.733 -28.416,13.237 -39.166,23.333c-10.917,10.088 -18.917,21.642 -25.625,33.184c-6.75,11.591 -11.833,23.408 -16.125,35.166c-8.542,23.546 -13.958,46.942 -18,69.913c-4.084,22.983 -6.792,45.583 -8.875,67.725c-4.042,44.287 -5.584,86.767 -6.667,126.837c-0.833,39.946 -1.625,77.713 -2.375,112.571c-1,60.338 -1.208,111.992 -0.416,151.25c-6.25,-37.508 -15.792,-85.971 -28.001,-142.05c-7.166,-33.304 -15.125,-69.516 -24.958,-107.763c-9.875,-38.224 -21.333,-78.512 -37.291,-119.641c-8.126,-20.533 -17.084,-41.346 -28.959,-61.887c-11.958,-20.367 -25.791,-41.326 -48.333,-58.592c-11.208,-8.463 -25.292,-15.729 -41.209,-18.388c-3.958,-0.75 -7.958,-1.221 -12,-1.162c-4.041,-0.167 -8.041,-0.075 -11.916,0.537c-3.958,0.442 -7.875,0.996 -11.25,1.996c-3.542,0.959 -7.083,1.629 -10.584,2.942c-14.083,4.55 -27.583,13.075 -38.249,23.587c-10.709,10.563 -18.626,22.942 -24.5,35.388c-11.167,25.087 -15.417,50.221 -17.542,74.396c-2.125,24.27 -1.667,47.846 -0.417,70.95c2.709,46.175 9.167,90.392 16.167,132.762c14.25,84.517 29.958,162.179 43.583,229.2c9.834,47.738 18.917,89.65 26.959,123.796c1.125,10.892 2.249,22.3 3.249,34.25c1.334,17.2 2.501,35.554 2.167,54.204c-0.166,9.179 -0.791,18.921 -2.333,26.833c-0.709,2.555 -1.917,6.109 -5.125,5.58c-1.459,-0.129 -2.583,-0.53 -3.959,-1.221c-2.749,-0.992 -7.666,-3.629 -11.624,-5.821c-8.459,-5.212 -17.209,-11.187 -26.001,-18.146c-17.625,-13.658 -35.583,-29.354 -54,-45.645c-18.458,-16.497 -37.416,-33.438 -56.833,-50.755c-9.792,-8.654 -19.708,-17.396 -29.708,-26.216c-5.167,-4.434 -9.792,-8.721 -15.458,-13.325c-5.709,-4.555 -11.209,-9.355 -17.376,-13.513c-23.958,-17.338 -52.333,-31.642 -84.291,-37.546c-31.792,-6.225 -66.875,-2.404 -97.459,11.971c-15.249,7.175 -29.416,16.837 -41.791,28.667c-12.375,11.875 -23.167,25.779 -30.625,42.483c-7.417,16.429 -12.333,36.408 -7.375,58.258c1.083,5.384 3.333,10.788 5.625,15.846l6.458,11.208c2.125,3.884 4.584,7.059 6.959,10.388c2.416,3.262 4.75,6.754 7.291,9.8c20,24.621 41.542,44.704 62.542,64.654c21.041,19.83 41.875,39.029 61.666,58.659c39.667,39.17 75.834,79.808 105.584,122.837c3.791,5.396 7.5,10.775 11.25,16.129c3.833,5.621 7.625,11.217 11.458,16.788c7.459,11.187 15.292,22.037 23.084,32.733c15.416,21.458 31.375,41.908 47.375,61.437c31.999,39.08 65.291,73.759 98.5,103.234c33.083,29.554 66.625,53.383 98.124,71.321c23.709,13.541 46.375,23.599 66.667,30.912c-2.5,3.025 -4.875,6.263 -7.083,9.909c-3.917,6.245 -6.792,13.962 -8.459,22.245c-1.249,8.971 -1.291,16.1 -0.166,24.096c0.792,7.938 3.291,15.917 6.416,23.705c3.5,7.566 7.709,15.074 13.042,21.529c10.458,13.249 23.667,23.654 37.625,31.937c28.125,16.613 59.292,26.417 91.375,33.791c64.25,14.218 132.917,18.238 201,18.384c68.084,-0.134 136.708,-4.108 201,-18.283c32.084,-7.346 63.25,-17.104 91.375,-33.625c13.958,-8.259 27.209,-18.533 37.709,-31.75c5.374,-6.396 9.624,-13.896 13.208,-21.426c3.166,-7.754 5.667,-15.724 6.583,-23.654c0.625,-3.958 0.833,-7.854 0.833,-11.683c0.209,-3.587 -0.291,-8.112 -0.833,-12.333c-1.541,-8.346 -4.417,-16.058 -8.25,-22.38c-2.666,-4.499 -5.666,-8.337 -8.708,-11.908c14.5,-9.2 30.125,-20.487 45.833,-34.604c32.75,-28.617 66.75,-67.754 93.876,-115.529Z" style="fill:#a9bece;fill-rule:nonzero;"/><path d="M616.688,1536.58c-0,89.359 148.583,119.075 331.875,119.075c183.333,0 331.916,-29.716 331.916,-119.075c0,-65.758 -148.583,-119.07 -331.916,-119.07c-183.292,-0 -331.875,53.312 -331.875,119.07Z" style="fill:#fff;fill-rule:nonzero;"/><path d="M639.646,1502.93c0,58.379 138.333,77.792 308.917,77.792c170.625,0 308.958,-19.413 308.958,-77.792c-0,-42.962 -138.333,-77.787 -308.958,-77.787c-170.584,-0 -308.917,34.825 -308.917,77.787Z" style="fill:#b8c7e6;fill-rule:nonzero;"/><path d="M653.937,1492.82c13,-12.571 27.959,-21.496 40,-28.804c24.584,-14.405 40.042,-21.938 38.625,-26.288c-1.166,-3.742 -18.624,-3.491 -47.791,5.909c-14.458,4.987 -32.125,11.642 -50.709,25.233c-9.166,6.842 -18.874,15.421 -26.541,28.192c-3.958,6.242 -6.834,13.962 -8.5,22.245c-1.25,8.963 -1.25,16.092 -0.167,24.092c0.833,7.942 3.292,15.921 6.417,23.709c3.5,7.566 7.75,15.07 13.083,21.524c10.458,13.25 23.667,23.659 37.625,31.942c28.083,16.609 59.292,26.412 91.334,33.792c64.291,14.217 132.916,18.233 201,18.379c68.083,-0.133 136.749,-4.112 201.041,-18.279c32.042,-7.346 63.25,-17.108 91.334,-33.63c14,-8.258 27.249,-18.528 37.749,-31.75c5.376,-6.399 9.626,-13.891 13.167,-21.42c3.209,-7.758 5.667,-15.729 6.583,-23.659c0.625,-3.962 0.876,-7.854 0.834,-11.679c0.208,-3.596 -0.292,-8.116 -0.834,-12.337c-1.5,-8.342 -4.374,-16.058 -8.25,-22.379c-7.624,-12.85 -17.291,-21.505 -26.458,-28.396c-18.541,-13.65 -36.208,-20.367 -50.667,-25.367c-29.125,-9.458 -46.624,-9.713 -47.749,-5.975c-1.417,4.35 14,11.892 38.583,26.342c12.042,7.317 26.916,16.287 39.875,28.875c6.417,6.204 12.292,13.404 15.541,20.825c3.501,7.629 3.417,13.55 1.376,23.633c-3.667,17.9 -18.709,33.492 -41.25,45.05c-22.417,11.6 -50.209,19.375 -79.584,24.988c-59.167,11.004 -125.292,14.012 -191.25,14.083c-66,-0.083 -132.125,-3.134 -191.25,-14.167c-29.375,-5.641 -57.166,-13.454 -79.5,-25.104c-22.5,-11.646 -37.416,-27.233 -40.958,-45.2c-1.167,-4.371 -1.333,-9.696 -1.333,-12.683c0.458,-3.53 1.083,-7.213 2.958,-10.904c3.292,-7.426 9.208,-14.609 15.666,-20.792Z" style="fill:#303030;fill-rule:nonzero;"/><path d="M948.563,1584.9c312.333,-0 575.458,-234.117 500.75,-676.721c-24.25,-143.504 -250.375,-232.946 -500.75,-232.946c-206.626,0 -369.126,44.967 -447.792,215.171c30.166,107.4 -58.334,150.642 -58.334,239.671c0,251.192 226.625,454.825 506.126,454.825Z" style="fill:#fff;fill-rule:nonzero;"/><path d="M268.479,799.771c-143.625,-121.704 -269.833,11.183 -238.166,74.075c34.291,68.121 161.5,142.475 257.416,290.121c235.375,362.308 403.417,303.612 420.958,340.804c66.167,-124.9 -196.583,-563.496 -196.583,-563.496c-24.5,58.413 -100,-19.796 -243.625,-141.504Z" style="fill:#fff;fill-rule:nonzero;"/><path d="M1378.94,1312.67c-22.791,44.175 -51.041,81.479 -78.416,110.808c-27,29.867 -54.125,50.259 -72.25,66.163c-18.958,14.57 -29.417,24.562 -27.459,28.391c1.917,3.746 15.917,0.346 39.209,-9.371c22.375,-11.058 54.541,-28.349 87.042,-57.562c32.791,-28.609 66.791,-67.75 93.916,-115.521c27.334,-47.608 47.417,-103.333 58.501,-160.387c10.703,-57.204 12.416,-115.201 9.661,-168.867c-2.578,-26.725 -4.037,-52.675 -8.787,-76.738c-2.041,-12.062 -4.041,-23.795 -5.963,-35.145c-2.083,-11.8 -5.245,-22.909 -8.291,-33.25c-12.459,-41.484 -27.829,-73.996 -40.829,-95.488c-13,-21.492 -23.25,-31.975 -26.875,-30.012c-8.042,4.229 15.083,54.925 30.541,134.637c1.788,9.975 3.751,20.092 4.668,30.638c1.041,10.995 2.125,22.358 3.208,34.041c3.042,23.288 3.042,47.938 4.499,73.313c0.501,50.737 -2.171,104.671 -11.999,157.25c-10.209,52.417 -27.459,103.05 -50.376,147.1Z" style="fill:#303030;fill-rule:nonzero;"/><path d="M763.438,935.9c-17.125,0.858 -19.25,112.792 -6.501,223.83c6.209,55.491 16.292,110.712 27.75,151.382c11.584,40.722 24.334,66.584 32.459,64.646c8.458,-2.004 8.292,-30.1 5.292,-71.27c-2.917,-41.246 -8.667,-95.817 -14.75,-150.525c-12.584,-109.342 -27.375,-218.929 -44.25,-218.063Z" style="fill:#303030;fill-rule:nonzero;"/><path d="M971.271,1375.76c34,-0.77 24.083,-440.629 -9.959,-439.858c-34.041,0.771 -24.083,440.625 9.959,439.858Z" style="fill:#303030;fill-rule:nonzero;"/><path d="M1127.85,1154.58c-5.083,54.558 -10.625,108.942 -13.417,150.084c-2.833,41.141 -3.208,68.937 4.959,71.095c8.292,2.201 21.375,-23.783 32.75,-64.5c11.417,-40.695 21.333,-96.058 26.542,-151.783c11.124,-111.604 3.166,-223.562 -13.542,-223.575c-17.333,-0.087 -26.375,109.746 -37.292,218.679Z" style="fill:#303030;fill-rule:nonzero;"/><path d="M885.104,35.637c-123.541,-7.674 -124.333,187.705 -132.292,362.884c-11.583,254.075 -12,370.304 -12,370.304l255.084,-17.021c0,0 -0.542,-147.621 -8.167,-362.262c-5.208,-145.579 -9.833,-348.142 -102.625,-353.905Z" style="fill:#fff;fill-rule:nonzero;"/><path d="M990.437,125.68c-5.958,-23.472 -13.5,-47.405 -26.999,-70.963c-6.792,-11.7 -15.292,-23.454 -27.251,-33.571c-11.666,-10.133 -27.541,-18 -43.958,-20.209c-4.042,-0.387 -8.167,-0.799 -12.167,-0.937l-11.208,0.488c-7.5,0.85 -15.166,2.045 -22.541,4.612c-14.876,4.733 -28.417,13.233 -39.167,23.333c-10.959,10.088 -18.959,21.642 -25.667,33.184c-6.75,11.592 -11.791,23.408 -16.125,35.166c-8.5,23.546 -13.958,46.942 -18,69.913c-4.041,22.983 -6.791,45.583 -8.833,67.725c-4.083,44.287 -5.583,86.767 -6.667,126.837c-0.875,39.946 -1.666,77.713 -2.417,112.571c-2.291,139.404 -0.291,232.613 8.209,233.109c8.5,0.492 19.25,-92.051 30.042,-231.275c2.75,-34.767 5.416,-72.596 7.999,-112.367c2.667,-39.737 5.501,-81.45 10.459,-123.875c5.125,-42.162 11.75,-86.058 26.333,-125.112c3.667,-9.675 7.834,-19.009 12.792,-27.263c4.875,-8.292 10.333,-15.884 16.583,-21.429c6.167,-5.663 12.792,-9.621 20.042,-11.942c3.583,-1.321 7.5,-1.808 11.5,-2.333l6.208,-0.279c1.792,0.125 3.458,0.358 5.209,0.404c6.666,0.95 12.541,3.679 18.458,8.658c5.916,4.888 11.458,12.05 16.25,20.33c9.75,16.591 16.791,36.937 22.208,57.687c10.792,41.804 16.084,85.825 20.125,128.429c3.875,42.741 6.125,84.537 8.292,124.371c2.125,39.817 4.125,77.458 5.958,112.204c7.334,139.033 12.042,231.85 20.542,232.012c8.542,0.184 16.583,-92.991 17.75,-232.841c0.292,-34.963 0.25,-72.842 -0.417,-112.892c-0.583,-40.012 -1.458,-82.446 -4.375,-126.621c-3.167,-44.175 -7.625,-90.079 -19.167,-137.124Z" style="fill:#303030;fill-rule:nonzero;"/><path d="M991.979,798.888l243.875,-27.158c0,-0 -6.833,-141.484 -23.416,-346.905c-11.25,-139.325 -24.417,-333.296 -113.626,-334.875c-118.875,-2.104 -111.208,185.213 -111.291,353.471c-0.167,244.037 4.458,355.467 4.458,355.467Z" style="fill:#fff;fill-rule:nonzero;"/><path d="M1231.19,317.934c-4.292,-41.442 -10.001,-84.471 -20.959,-128.342c-5.708,-21.925 -12.5,-44.117 -23.333,-66.196c-5.375,-11.017 -11.833,-22.05 -20.417,-32.567c-8.541,-10.437 -19.458,-20.6 -33.541,-27.554c-13.792,-7.092 -30.959,-9.671 -45.167,-8.225c-14.042,1.042 -28.875,4.954 -41.709,12.521c-12.875,7.392 -23.458,17.554 -31.666,28.292c-8.334,10.771 -14.292,22.187 -19.083,33.504c-9.75,22.712 -14.751,45.25 -18.584,67.246c-3.708,22.008 -5.75,43.554 -7.083,64.604c-2.583,42.092 -2.292,82.242 -1.667,120.091c0.75,37.888 1.834,73.242 2.875,106.192c4.167,131.438 12.333,219.575 22.083,219.012c7.25,-0.42 11.876,-87.591 16.209,-219.037c1.125,-32.771 1.875,-68.621 2.75,-106.045c0.916,-37.442 2,-76.767 5.5,-116.63c1.75,-19.9 4.166,-39.937 7.875,-59.554c3.708,-19.529 8.583,-38.975 16.125,-55.85c7.291,-17.171 17.708,-30.717 29.791,-37.592c6.001,-3.558 12.917,-5.321 20.626,-5.895c7.541,-0.6 12.75,0.399 18.541,3.17c11.292,5.43 22.667,19.709 30.958,36.904c8.542,17.063 14.917,36.592 20.251,56.292c10.458,39.742 16.874,80.967 22.041,121.092c5.084,40.162 8.875,79.537 12.583,116.937c3.625,37.388 7.084,72.734 10.25,105.363c12.584,130.583 20.917,217.796 29.417,217.612c8.542,-0.167 12.958,-88.237 8.792,-220.041c-1,-32.946 -2.583,-68.626 -4.709,-106.334c-2.125,-37.679 -4.624,-77.491 -8.749,-118.97Z" style="fill:#303030;fill-rule:nonzero;"/><path d="M1259.23,562.267c-34.917,214.354 -46.791,312.896 -46.791,312.896l218.083,10.829c0,-0 2.666,-122.196 17.417,-305.009c9.995,-123.991 37.625,-299.325 -40.5,-313.404c-104.084,-18.745 -124.084,146.896 -148.209,294.688Z" style="fill:#fff;fill-rule:nonzero;"/><path d="M1459.52,825.742c0.287,-3.842 0.541,-7.734 0.833,-11.663c4.25,-62.704 7.871,-135.208 14.542,-212.616c3.208,-38.592 7.709,-78.734 10.75,-120.284c2.917,-41.554 5.167,-84.208 1.042,-128.6c-1.042,-11.1 -2.626,-22.333 -5.083,-33.762c-2.542,-11.413 -5.667,-23.005 -10.959,-34.771c-5.292,-11.666 -12.667,-23.837 -24.213,-34.016c-11.371,-10.313 -27.62,-16.684 -41.912,-17.909c-13.375,-1.625 -28.167,-0.042 -41.417,4.925c-13.333,4.9 -24.708,12.871 -33.875,21.629c-9.208,8.788 -16.417,18.408 -22.375,28.075c-6.125,9.671 -11.041,19.467 -15.291,29.213c-16.876,39.054 -25.334,77.146 -32.459,113.045c-6.916,35.925 -11.583,69.788 -15.625,100.942c-15.583,124.484 -21.625,207.992 -13.333,209.254c8.542,1.305 27.208,-80.291 51.125,-203.075c6.125,-30.608 12.583,-63.675 20.75,-97.891c8.25,-34.03 17.875,-69.938 33.083,-102.4c3.792,-8.067 8,-15.846 12.667,-22.85c4.625,-7.134 9.75,-13.484 15.25,-18.429c11.166,-10.059 22.125,-14.226 36.042,-12.459c6.083,0.796 9.916,2.413 14,6c4,3.579 7.916,9.383 11.083,16.638c6.375,14.712 9.916,33.616 11.704,52.842c3.671,38.799 2.005,79.87 -0.371,120.22c-2.417,40.438 -6.125,80.759 -8.333,120.238c-4.667,78.699 -5.084,152.258 -5.084,214.675l0,17.3l0.251,6.891c0.583,8.859 1.958,16.596 3.416,23.988c2.996,14.708 6.5,27.891 9.75,40.212c6.584,24.613 12.208,45.626 16.204,63.092c8.292,34.8 9.796,55.267 14.297,55.65c3.958,0.483 10.083,-21.108 7.832,-58.75c-0.958,-18.709 -3.916,-41.238 -7.874,-66.375c-1.963,-12.567 -4.167,-25.846 -5.751,-39.308c-0.749,-6.692 -1.337,-13.484 -1.254,-19.6l0.171,-4.404l0.417,-5.667Z" style="fill:#303030;fill-rule:nonzero;"/><path d="M499.438,151.05c-122.459,18.117 -82.667,209.346 -54.125,382.308c41.416,250.859 75.374,444.025 75.374,444.025l235.75,-148.95c0,0 -31.125,-144.254 -83.166,-352.57c-35.292,-141.288 -81.875,-338.413 -173.833,-324.813Z" style="fill:#fff;fill-rule:nonzero;"/><path d="M449.396,228.533c2.292,-9.637 5.125,-18.866 8.791,-27.108c7.792,-16.308 18.209,-27.262 32.917,-32.246c8.083,-2.579 14.542,-3.554 20.875,-2.487c6.334,0.975 12.917,3.95 19.542,8.813c13.375,9.704 25.541,25.983 35.792,43.116c10.416,17.238 19.083,36.096 27.083,54.946c15.833,37.908 28.25,76.554 39.417,113.475c11.125,36.967 20.791,72.433 30.083,105.233c37.208,131.1 63.375,217.858 71.083,216.309c8.958,-1.817 -4.917,-92.309 -33.916,-225.555c-7.209,-33.304 -15.167,-69.516 -24.959,-107.762c-9.875,-38.225 -21.375,-78.513 -37.333,-119.642c-8.083,-20.537 -17.084,-41.346 -28.958,-61.887c-11.959,-20.367 -25.792,-41.33 -48.334,-58.592c-11.208,-8.462 -25.292,-15.729 -41.208,-18.388c-3.959,-0.749 -7.917,-1.22 -11.958,-1.162c-4.042,-0.167 -8.042,-0.079 -11.917,0.538c-4,0.441 -7.917,0.996 -11.292,1.991c-3.542,0.963 -7.041,1.63 -10.541,2.946c-14.084,4.55 -27.584,13.071 -38.251,23.587c-10.749,10.563 -18.666,22.942 -24.5,35.388c-11.208,25.088 -15.458,50.221 -17.541,74.396c-2.125,24.27 -1.709,47.846 -0.417,70.95c2.667,46.175 9.167,90.392 16.125,132.762c14.292,84.513 29.958,162.175 43.625,229.201c27.5,133.712 49.292,222.066 57.667,220.445c8.333,-1.621 -0.875,-92.275 -19.959,-227.067c-9.958,-67.27 -21.541,-145.746 -33.999,-229.829c-5.834,-41.796 -11.292,-84.895 -13.251,-128.05c-0.958,-21.533 -1.083,-43.137 0.876,-63.949c0.833,-10.467 2.5,-20.551 4.458,-30.372Z" style="fill:#303030;fill-rule:nonzero;"/><path d="M478.521,932.017c-1.458,-0.134 -2.625,-0.529 -4,-1.221c-2.75,-0.992 -7.625,-3.633 -11.583,-5.825c-8.501,-5.208 -17.251,-11.183 -26.042,-18.142c-17.625,-13.658 -35.584,-29.354 -54,-45.645c-18.459,-16.497 -37.417,-33.442 -56.792,-50.755c-9.833,-8.654 -19.75,-17.396 -29.75,-26.22c-5.125,-4.43 -9.791,-8.717 -15.458,-13.321c-5.667,-4.554 -11.167,-9.358 -17.375,-13.517c-23.917,-17.333 -52.334,-31.638 -84.292,-37.542c-31.75,-6.225 -66.833,-2.404 -97.416,11.971c-15.292,7.171 -29.459,16.833 -41.834,28.667c-12.333,11.875 -23.125,25.775 -30.625,42.483c-7.375,16.429 -12.292,36.409 -7.375,58.259c1.084,5.383 3.334,10.787 5.667,15.845l6.458,11.208c2.125,3.884 4.542,7.055 6.958,10.388c2.417,3.262 4.75,6.75 7.25,9.8c20.001,24.617 41.584,44.7 62.584,64.654c21,19.825 41.833,39.029 61.667,58.655c39.625,39.17 75.791,79.808 105.583,122.837c3.75,5.4 7.5,10.779 11.208,16.133c3.833,5.621 7.667,11.217 11.459,16.78c7.499,11.196 15.291,22.041 23.083,32.737c15.458,21.458 31.375,41.904 47.375,61.441c32,39.08 65.292,73.759 98.5,103.234c33.125,29.55 66.625,53.379 98.125,71.317c31.541,17.996 61.166,29.845 85.917,37.274c24.708,7.546 44.541,10.943 56.833,14.259c6.167,1.662 10.583,3.175 13.166,4.725c2.792,1.483 4.334,2.779 5.334,2.15c0.792,-0.454 1.125,-2.787 -0.833,-6.387c-2,-3.863 -6.667,-7.763 -12.917,-11.467c-12.542,-7.421 -31.25,-14.042 -53.792,-24.213c-22.583,-10.045 -49.083,-23.716 -77.333,-42.816c-28.25,-19.054 -58.375,-43.288 -88.459,-72.909c-30.083,-29.533 -60.624,-63.891 -90.208,-102.545c-14.833,-19.322 -29.667,-39.492 -44.083,-60.675c-7.25,-10.554 -14.584,-21.238 -21.625,-32.292c-3.584,-5.484 -7.167,-11 -10.75,-16.538c-3.833,-5.729 -7.667,-11.487 -11.5,-17.258c-30.917,-46.621 -68.875,-90.379 -109.625,-131.392c-20.333,-20.55 -41.459,-40.304 -62.167,-59.996c-20.583,-19.654 -41.167,-39.253 -57.541,-59.479c-2.084,-2.516 -3.75,-5.075 -5.626,-7.591c-1.833,-2.526 -3.833,-5.046 -5.083,-7.563l-4.416,-7.483c-0.542,-1.567 -1.251,-2.759 -1.542,-4.496c-1.667,-6.396 -0.292,-16.213 4.083,-25.725c8.625,-19.417 27,-36.679 47.542,-46.571c20.833,-9.937 44.458,-13.037 67.375,-8.904c23,3.871 45.25,14.204 65.292,28.162c5.166,3.246 9.875,7.276 14.749,10.975c4.834,3.734 10.126,8.375 15.125,12.484c10.126,8.508 20.167,16.937 30.084,25.275c19.958,16.804 39.458,33.246 58.458,49.246c19.25,15.95 38.167,31.408 58,45.562c9.833,7.121 20.292,13.742 31.292,19.796c6.041,2.954 11,5.579 18.75,8.129c4.292,1.934 9.208,2.067 13.75,2.829c2.291,0.196 4.667,0.934 6.875,0.683l6.667,-0.545c8.999,-0.146 16.583,-6.334 21.333,-13.288c4.791,-7.221 7.333,-16.092 8.667,-24.85c1.75,-12.549 1.583,-23.121 1.208,-33.65c-0.958,-20.791 -3.459,-39.737 -6.208,-57.446c-5.626,-35.337 -12.5,-65.466 -18.709,-90.15c-12.583,-49.283 -23.041,-76.558 -27.125,-75.604c-4.208,0.971 -1.041,29.809 5.167,79.733c3.042,24.951 6.916,55.23 9.75,89.709c1.375,17.2 2.5,35.554 2.208,54.208c-0.166,9.175 -0.792,18.921 -2.375,26.834c-0.708,2.554 -1.916,6.104 -5.083,5.579Z" style="fill:#303030;fill-rule:nonzero;"/></g></svg>