<?xml version="1.0" encoding="UTF-8" standalone="no"?><!DOCTYPE svg PUBLIC "-//W3C//DTD SVG 1.1//EN" "http://www.w3.org/Graphics/SVG/1.1/DTD/svg11.dtd"><svg width="100%" height="100%" viewBox="0 0 1216 1236" version="1.1" xmlns="http://www.w3.org/2000/svg" xmlns:xlink="http://www.w3.org/1999/xlink" xml:space="preserve" xmlns:serif="http://www.serif.com/" style="fill-rule:evenodd;clip-rule:evenodd;stroke-linejoin:round;stroke-miterlimit:2;"><g id="Rock"><path d="M1146.02,898.756c27.329,-47.608 47.417,-103.329 58.504,-160.387c10.688,-57.196 12.409,-115.196 9.65,-168.863c-2.554,-26.725 -4.016,-52.679 -8.754,-76.737c-2.05,-12.063 -4.054,-23.8 -5.992,-35.146c-2.062,-11.805 -5.245,-22.913 -8.262,-33.254c-2.787,-9.267 -5.733,-18.013 -8.754,-26.363c-0.746,-3.463 -1.571,-7.008 -2.334,-10.679c-1.574,-7.496 -3.45,-15.346 -6.116,-23.409c-9.654,-32.295 -25.425,-70.128 -54.779,-104.916c-15.084,-16.975 -34.021,-32.867 -57.105,-43.575c-22.945,-10.8 -49.97,-15.446 -75.77,-12.492c-4.642,0.513 -9.263,1.292 -13.855,2.205c-0.1,-0.371 -0.179,-0.713 -0.279,-1.092c-1.562,-5.434 -3.75,-11.121 -5.925,-17.188c-2.716,-5.871 -5.266,-12.237 -8.933,-18.5c-6.796,-12.762 -16.658,-25.804 -29.446,-37.72c-12.817,-11.867 -29.229,-22.096 -47.679,-28.351c-18.496,-6.279 -38.354,-8.896 -58.267,-7.629c-19.979,1.084 -40.812,6.154 -59.641,15.879c-5.742,3.05 -11.096,6.613 -16.263,10.384c-4.887,-11.93 -11.554,-24.267 -20.262,-36.492c-10.5,-14.721 -24.884,-28.996 -42.913,-39.55c-17.896,-10.717 -39.146,-17.171 -60.4,-18.925c-21.079,-1.683 -43.167,-0.083 -64.425,7.496c-21.196,7.316 -40.417,20.225 -55.325,35.671c-3.554,3.983 -7.571,7.691 -10.583,11.933c-3.046,4.225 -6.075,8.425 -9.092,12.604c-2.929,4.209 -5.083,8.692 -7.596,12.996c-2.421,4.337 -4.891,8.625 -6.604,13.075c-0.313,0.696 -0.55,1.379 -0.85,2.067c-11.087,-11.48 -25.025,-22.05 -41.687,-29.555c-20.75,-9.591 -44.663,-13.57 -68.821,-12.453c-24.217,0.991 -50.892,8.178 -72.796,23.666c-22.096,15.129 -38.867,36.238 -50.908,58.154c-12.338,22.017 -19.771,45.163 -25.521,67.796c-1.329,5.679 -2.646,11.329 -3.967,16.958c-0.954,5.63 -1.912,11.234 -2.854,16.796c-2.133,11.146 -2.946,22.121 -4.204,32.917c-1.454,16.408 -2.267,32.17 -2.654,47.271c-26.088,11.121 -57.125,26.845 -91.188,53.121c-20.392,16.033 -42.158,36.254 -60.379,65.066c-9.05,14.325 -17.008,31.113 -21.563,50.205c-2.233,9.495 -3.925,19.478 -4.225,29.754c-0.104,2.475 -0.35,5.362 -0.291,7.525l0.146,6.575c0.108,4.408 0.22,8.862 0.333,13.35c1.362,35.929 6.475,72.745 15.192,108.925c8.554,36.275 22.008,71.433 37.504,104.704c31.996,66.287 75.754,123.091 120.1,165.091c44.212,42.425 88.175,70.5 119.491,88.984c11.455,5.979 21.25,10.75 29.359,14.346c-2.271,2.833 -4.446,5.883 -6.475,9.25c-3.938,6.246 -6.809,13.962 -8.5,22.245c-1.238,8.971 -1.254,16.1 -0.158,24.096c0.829,7.938 3.304,15.917 6.416,23.705c3.5,7.566 7.733,15.074 13.071,21.529c10.462,13.249 23.658,23.654 37.621,31.937c28.1,16.613 59.296,26.417 91.341,33.792c64.292,14.217 132.938,18.237 201.025,18.383c68.084,-0.133 136.725,-4.108 201.021,-18.283c32.046,-7.346 63.242,-17.104 91.355,-33.625c13.975,-8.259 27.212,-18.533 37.712,-31.75c5.388,-6.396 9.629,-13.896 13.192,-21.425c3.183,-7.754 5.671,-15.725 6.583,-23.655c0.637,-3.958 0.862,-7.854 0.829,-11.683c0.225,-3.587 -0.283,-8.112 -0.829,-12.333c-1.513,-8.346 -4.4,-16.058 -8.258,-22.379c-2.663,-4.5 -5.634,-8.338 -8.692,-11.908c14.492,-9.2 30.108,-20.488 45.825,-34.605c32.775,-28.617 66.779,-67.754 93.904,-115.529Z" style="fill:#a9bece;fill-rule:nonzero;"/><path d="M324.829,1074.42c0,89.358 148.592,119.075 331.896,119.075c183.304,-0 331.9,-29.717 331.9,-119.075c0,-65.759 -148.596,-119.071 -331.9,-119.071c-183.304,-0 -331.896,53.312 -331.896,119.071Z" style="fill:#fff;fill-rule:nonzero;"/><path d="M356.163,1040.76c-0,57.988 135.446,77.271 302.537,77.271c167.088,0 302.534,-19.283 302.534,-77.271c-0,-42.67 -135.446,-77.266 -302.534,-77.266c-167.091,-0 -302.537,34.596 -302.537,77.266Z" style="fill:#b8c7e6;fill-rule:nonzero;"/><path d="M362.1,1030.66c13,-12.571 27.929,-21.496 39.988,-28.804c24.587,-14.404 40.025,-21.938 38.629,-26.288c-1.154,-3.741 -18.637,-3.491 -47.779,5.909c-14.463,4.987 -32.129,11.642 -50.709,25.233c-9.187,6.842 -18.875,15.421 -26.566,28.192c-3.934,6.242 -6.809,13.962 -8.496,22.246c-1.242,8.962 -1.258,16.091 -0.158,24.091c0.82,7.942 3.304,15.921 6.42,23.709c3.492,7.566 7.725,15.07 13.063,21.524c10.462,13.251 23.658,23.659 37.625,31.942c28.096,16.609 59.288,26.412 91.346,33.792c64.287,14.217 132.929,18.233 201.016,18.379c68.088,-0.133 136.725,-4.112 201.017,-18.279c32.054,-7.346 63.25,-17.108 91.363,-33.63c13.966,-8.258 27.208,-18.528 37.712,-31.749c5.379,-6.4 9.629,-13.892 13.192,-21.421c3.179,-7.758 5.675,-15.729 6.579,-23.659c0.637,-3.962 0.871,-7.854 0.829,-11.679c0.225,-3.596 -0.287,-8.116 -0.821,-12.337c-1.516,-8.342 -4.412,-16.058 -8.266,-22.379c-7.613,-12.85 -17.271,-21.505 -26.446,-28.396c-18.554,-13.65 -36.2,-20.367 -50.667,-25.367c-29.133,-9.458 -46.617,-9.712 -47.775,-5.975c-1.4,4.35 14.033,11.892 38.592,26.342c12.05,7.317 26.941,16.287 39.887,28.875c6.417,6.204 12.284,13.404 15.538,20.825c3.5,7.629 3.433,13.55 1.375,23.633c-3.654,17.9 -18.684,33.492 -41.275,45.05c-22.384,11.6 -50.188,19.375 -79.567,24.988c-59.141,11.004 -125.258,14.012 -191.258,14.083c-65.996,-0.083 -132.108,-3.134 -191.238,-14.167c-29.366,-5.641 -57.146,-13.454 -79.483,-25.104c-22.492,-11.645 -37.45,-27.233 -40.967,-45.2c-1.166,-4.371 -1.341,-9.695 -1.35,-12.683c0.454,-3.529 1.092,-7.212 2.95,-10.904c3.321,-7.425 9.25,-14.609 15.7,-20.792Z" style="fill:#303030;fill-rule:nonzero;"/><path d="M31.675,530.989c0,143.484 54.475,330.638 312.65,488l-61.587,-711.899c-0,-0 -251.063,80.424 -251.063,223.899Z" style="fill:#fff;fill-rule:nonzero;"/><path d="M65.896,501.069c2.513,-11.525 7.279,-22.48 13.338,-32.667c12,-20.463 28.362,-37.825 44.671,-52.404c32.941,-29.258 64.912,-48.796 89.399,-64.275c49.838,-30.292 72.309,-44.484 69.434,-53.088c-1.321,-4.146 -8.984,-6.154 -23.671,-4.646c-14.683,1.529 -36.433,6.488 -65.554,17.488c-28.904,11.379 -65.809,27.842 -107.042,59.642c-20.392,16.037 -42.158,36.258 -60.375,65.07c-9.054,14.326 -17.008,31.113 -21.571,50.196c-2.225,9.5 -3.921,19.488 -4.225,29.759c-0.096,2.471 -0.35,5.362 -0.291,7.524l0.15,6.58c0.112,4.404 0.22,8.854 0.329,13.35c1.366,35.921 6.479,72.742 15.2,108.925c8.546,36.27 22.008,71.433 37.504,104.7c31.992,66.287 75.75,123.092 120.1,165.095c44.204,42.425 88.175,70.492 119.492,88.98c32.445,16.937 52.37,24.746 54.608,21.045c2.3,-3.783 -13.188,-18.691 -40.421,-41.25c-26.079,-24.054 -63.962,-56.233 -101.175,-99.675c-37.446,-43.091 -73.375,-97.529 -99.35,-158.258c-12.492,-30.529 -23.437,-62.241 -30.25,-94.754c-6.975,-32.429 -11.104,-65.212 -12.325,-97.154c-0.104,-3.996 -0.212,-7.954 -0.312,-11.867l-0.171,-5.85c-0.059,-1.95 0.158,-3.162 0.204,-4.766c0.071,-6.059 1.083,-11.942 2.304,-17.7Z" style="fill:#303030;fill-rule:nonzero;"/><path d="M965.546,212.085c-82.742,13.479 -138.7,92.604 -107.717,282.738l299.617,-48.813c-30.979,-190.146 -109.162,-247.408 -191.9,-233.925Z" style="fill:#fff;fill-rule:nonzero;"/><path d="M1163.18,361.981c-1.575,-7.496 -3.454,-15.346 -6.116,-23.408c-9.658,-32.296 -25.421,-70.129 -54.775,-104.917c-15.088,-16.975 -34.025,-32.867 -57.113,-43.575c-22.941,-10.8 -49.962,-15.446 -75.766,-12.492c-25.367,2.784 -50.317,11.517 -71.459,26.692c-21.141,15.021 -36.704,35.8 -46.633,56.717c-10.075,21 -15.679,42.258 -18.258,62.092c-0.655,4.966 -1.484,9.866 -1.896,14.674c-0.263,4.792 -0.509,9.509 -0.759,14.146c-0.7,9.292 -0.341,18.142 -0.029,26.621c0.163,4.229 0.321,8.379 0.475,12.425c0.434,4.004 0.855,7.913 1.263,11.725c0.929,7.6 1.571,14.829 2.8,21.504c2.633,13.313 4.783,24.896 7.721,34.179c5.82,18.592 10.995,28.709 15.195,28.013c4.2,-0.692 6.396,-11.934 6.988,-30.721c0.262,-9.4 1.083,-20.725 1.146,-33.562c0.121,-6.421 0.771,-13.2 1.054,-20.326c0.158,-3.558 0.325,-7.204 0.492,-10.937c0.379,-3.683 0.762,-7.458 1.158,-11.308c0.729,-7.692 1.329,-15.7 2.85,-23.729c0.621,-4.038 1.254,-8.142 1.896,-12.313c0.762,-4.112 1.879,-8.159 2.783,-12.325c3.592,-16.667 9.479,-33.271 17.708,-48.288c8.192,-15.062 19.155,-28.187 32.959,-37.466c13.608,-9.308 30.654,-15.142 48.058,-17.042c17.046,-1.887 34.017,0.771 49.654,7.575c15.659,6.771 29.925,17.492 42.392,30.046c24.446,25.975 41.638,57.662 54.158,85.838c3.396,6.958 6.159,13.891 8.725,20.55c2.563,6.654 5.429,12.846 7.554,18.895c4.184,12.125 8.642,22.567 11.871,31.379c6.554,17.592 12.225,27.555 16.425,26.88c4.196,-0.675 5.884,-11.909 5.45,-31.413c-0.162,-9.75 -1.887,-21.408 -3.683,-34.879c-0.925,-6.729 -2.721,-13.758 -4.288,-21.25Z" style="fill:#303030;fill-rule:nonzero;"/><path d="M664.754,364.064c0,144.555 67.955,261.738 151.784,261.738c83.829,0 151.783,-117.183 151.783,-261.738c0,-192.649 -67.954,-261.741 -151.783,-261.741c-83.829,-0 -151.784,69.092 -151.784,261.741Z" style="fill:#fff;fill-rule:nonzero;"/><path d="M955.279,178.702c-1.566,-5.438 -3.754,-11.121 -5.929,-17.188c-2.712,-5.874 -5.267,-12.241 -8.933,-18.504c-6.8,-12.758 -16.663,-25.8 -29.446,-37.72c-12.816,-11.863 -29.225,-22.092 -47.675,-28.347c-18.504,-6.279 -38.354,-8.9 -58.271,-7.629c-19.979,1.084 -40.812,6.15 -59.637,15.88c-18.75,9.954 -34.496,24.262 -46.942,39.779c-2.904,4.008 -5.796,7.996 -8.675,11.966c-2.8,4 -4.862,8.271 -7.267,12.375c-4.987,8.175 -8.229,16.701 -11.795,24.971c-13.196,33.4 -17.492,65.421 -19.3,92.38c-2.713,54.133 5.412,88.995 13.345,88.945c9.03,0.059 13.909,-34.695 24.584,-83.633c5.65,-24.254 12.754,-52.396 25.337,-78.729c3.325,-6.413 6.271,-13.246 10.4,-19.125c1.983,-2.992 3.671,-6.3 5.859,-9.108l6.583,-8.405c9.229,-10.662 19.692,-19.808 31.608,-26.204c12.046,-6.121 25.367,-9.692 39.325,-10.937c14.046,-1.417 28.109,-0.138 40.575,3.174c25.188,6.551 45.084,23.155 59.367,41.372c3.721,4.412 6.713,9.245 9.967,13.574c2.916,4.671 5.675,9.096 8.27,13.263c2.409,4.346 4.759,8.417 7.03,12.187c2.012,3.905 3.962,7.488 5.841,10.717c7.234,13.025 12.625,20.667 16.892,19.688c4.021,-0.913 5.913,-10.267 4.466,-26.251c-0.437,-3.979 -1.041,-8.383 -1.82,-13.17c-1.063,-4.73 -2.317,-9.846 -3.759,-15.321Z" style="fill:#303030;fill-rule:nonzero;"/><path d="M440.804,295.377c0,144.554 67.959,261.738 151.784,261.738c83.829,-0 151.783,-117.184 151.783,-261.738c0,-192.65 -67.954,-261.742 -151.783,-261.742c-83.825,0 -151.784,69.092 -151.784,261.742Z" style="fill:#fff;fill-rule:nonzero;"/><path d="M665.95,19.535c-17.9,-10.721 -39.15,-17.17 -60.4,-18.929c-21.079,-1.679 -43.162,-0.083 -64.429,7.5c-21.2,7.317 -40.421,20.225 -55.321,35.671c-3.558,3.983 -7.575,7.691 -10.583,11.933c-3.05,4.221 -6.079,8.425 -9.096,12.605c-2.929,4.203 -5.083,8.691 -7.592,12.995c-2.429,4.337 -4.891,8.625 -6.608,13.075c-15.75,35.167 -21.246,69.267 -23.729,97.93c-3.633,57.583 4.721,94.662 12.612,94.612c9.067,0.071 13.755,-36.938 25.259,-88.879c6.241,-25.692 14.479,-55.342 28.804,-82.5c14.087,-27.333 35.733,-49.754 62.962,-59.184c13.492,-4.958 28.93,-6.337 43.896,-5.633c14.884,0.804 28.755,4.383 40.958,10.65c24.659,12.271 42.267,35.446 54.484,57.446c12.333,22.175 19.95,43.221 26.354,57.817c5.946,14.774 10.988,23.324 15.25,22.729c4.162,-0.58 6.504,-10.255 6.646,-27.154c-0.387,-16.805 -3.042,-41.001 -13.392,-69.267c-4.954,-14.15 -12.654,-29.117 -23.17,-43.867c-10.497,-14.721 -24.88,-28.996 -42.905,-39.55Z" style="fill:#303030;fill-rule:nonzero;"/><path d="M200.063,348.027c-0,144.554 67.954,261.738 151.783,261.738c83.829,-0 151.783,-117.184 151.783,-261.738c0,-192.65 -67.954,-261.742 -151.783,-261.742c-83.829,0 -151.783,69.092 -151.783,261.742Z" style="fill:#fff;fill-rule:nonzero;"/><path d="M656.717,213.064c-279.521,0 -506.113,113.517 -506.113,454.842c0,251.192 226.592,454.825 506.113,454.825c312.337,-0 575.479,-234.117 500.729,-676.721c-24.233,-143.504 -250.358,-232.946 -500.729,-232.946Z" style="fill:#fff;fill-rule:nonzero;"/><path d="M197.575,497.343l0,-135.516c-37.608,27.712 -109.8,117.712 0,135.516Z" style="fill:#b8c7e6;fill-rule:nonzero;"/><path d="M409.384,66.897c-20.75,-9.591 -44.663,-13.574 -68.825,-12.453c-24.213,0.987 -50.884,8.178 -72.788,23.662c-22.1,15.129 -38.871,36.242 -50.917,58.158c-12.329,22.017 -19.762,45.163 -25.512,67.796c-1.325,5.675 -2.65,11.329 -3.963,16.958c-0.962,5.63 -1.912,11.23 -2.866,16.796c-2.125,11.146 -2.946,22.117 -4.2,32.917c-3.838,43.404 -3.254,82.383 -1.959,116.179c2.95,67.379 10.93,111.742 19.221,111.571c8.725,-0.158 13.525,-44.746 19.075,-110.779c2.904,-32.867 5.629,-71.809 11.2,-111.279c1.675,-9.834 2.846,-19.996 5.159,-29.871c1.016,-4.98 2.041,-9.983 3.066,-15.017c1.296,-4.904 2.596,-9.829 3.909,-14.775c5.462,-19.575 12.087,-39.054 21.616,-55.879c9.334,-16.946 21.009,-31.45 34.88,-41.508c13.749,-10.3 30.149,-15.438 47.329,-17.163c17.362,-1.716 34.445,-0.029 48.941,5.304c14.659,5.15 27.379,13.455 37.842,23.384c20.942,20.117 33.312,44.096 42.229,60.621c4.529,8.337 8.079,15.096 11.092,19.62c3.075,4.496 5.716,6.742 7.787,6.267c2.075,-0.475 3.33,-3.613 3.813,-9.213c0.554,-5.612 0.246,-13.641 -1.496,-23.737c-3.546,-19.933 -11.404,-49.463 -35.179,-79.425c-11.921,-14.729 -28.692,-28.792 -49.454,-38.134Z" style="fill:#303030;fill-rule:nonzero;"/><path d="M1087.08,850.502c-22.762,44.175 -51.045,81.479 -78.395,110.808c-27.017,29.867 -54.155,50.259 -72.242,66.163c-18.992,14.57 -29.446,24.562 -27.488,28.391c1.909,3.746 15.909,0.346 39.213,-9.371c22.367,-11.058 54.554,-28.349 87.05,-57.562c32.775,-28.609 66.787,-67.75 93.9,-115.521c27.329,-47.608 47.421,-103.333 58.508,-160.387c10.692,-57.204 12.409,-115.201 9.659,-168.867c-2.567,-26.725 -4.03,-52.675 -8.759,-76.738c-2.058,-12.062 -4.054,-23.795 -5.987,-35.145c-2.067,-11.8 -5.254,-22.909 -8.271,-33.25c-12.475,-41.484 -27.871,-73.996 -40.837,-95.488c-13.017,-21.492 -23.259,-31.975 -26.884,-30.012c-8.033,4.229 15.075,54.925 30.525,134.637c1.829,9.975 3.767,20.092 4.692,30.638c1.037,10.995 2.104,22.358 3.208,34.041c3.029,23.288 3.033,47.938 4.475,73.313c0.496,50.737 -2.171,104.671 -11.971,157.25c-10.233,52.417 -27.462,103.05 -50.396,147.1Z" style="fill:#303030;fill-rule:nonzero;"/><path d="M471.592,473.735c-17.142,0.859 -19.271,112.792 -6.521,223.83c6.208,55.491 16.317,110.712 27.779,151.383c11.571,40.721 24.321,66.583 32.429,64.645c8.455,-2.004 8.296,-30.1 5.296,-71.27c-2.916,-41.246 -8.633,-95.817 -14.758,-150.525c-12.567,-109.342 -27.358,-218.929 -44.225,-218.063Z" style="fill:#303030;fill-rule:nonzero;"/><path d="M679.4,913.593c34.046,-0.77 24.084,-440.629 -9.945,-439.858c-34.046,0.771 -24.084,440.625 9.945,439.858Z" style="fill:#303030;fill-rule:nonzero;"/><path d="M835.988,692.414c-5.079,54.559 -10.592,108.942 -13.417,150.084c-2.821,41.141 -3.191,68.937 4.975,71.095c8.296,2.201 21.371,-23.783 32.754,-64.499c11.392,-40.696 21.334,-96.059 26.525,-151.784c11.159,-111.604 3.2,-223.562 -13.541,-223.575c-17.3,-0.087 -26.375,109.746 -37.296,218.679Z" style="fill:#303030;fill-rule:nonzero;"/></g></svg>