<?xml version="1.0" encoding="UTF-8" standalone="no"?><!DOCTYPE svg PUBLIC "-//W3C//DTD SVG 1.1//EN" "http://www.w3.org/Graphics/SVG/1.1/DTD/svg11.dtd"><svg width="100%" height="100%" viewBox="0 0 1216 1722" version="1.1" xmlns="http://www.w3.org/2000/svg" xmlns:xlink="http://www.w3.org/1999/xlink" xml:space="preserve" xmlns:serif="http://www.serif.com/" style="fill-rule:evenodd;clip-rule:evenodd;stroke-linejoin:round;stroke-miterlimit:2;"><g id="Scissors"><path d="M1145.99,1384.05c27.334,-47.608 47.417,-103.329 58.501,-160.387c10.708,-57.197 12.416,-115.196 9.666,-168.863c-2.542,-26.725 -4.042,-52.679 -8.75,-76.737c-2.083,-12.063 -4.041,-23.8 -6,-35.146c-2.041,-11.805 -5.25,-22.913 -8.25,-33.254c-2.791,-9.267 -5.75,-18.013 -8.75,-26.359c-0.75,-3.467 -1.583,-7.012 -2.375,-10.683c-1.541,-7.496 -3.416,-15.346 -6.083,-23.409c-9.667,-32.295 -25.417,-70.129 -54.792,-104.916c-15.083,-16.975 -34,-32.867 -57.125,-43.575c-22.916,-10.8 -49.958,-15.446 -75.75,-12.492c-4.792,0.529 -9.542,1.338 -14.292,2.292c-2.791,-7.863 -6.208,-16.138 -10.624,-24.771c-6.625,-12.892 -15.459,-26.333 -27.042,-39.242c-11.583,-12.875 -26.542,-24.825 -44.458,-33.6c-17.792,-8.854 -39.042,-13.775 -60.001,-13.366c-20.25,-0.171 -41.791,4.266 -61.291,13.408c-10.708,5 -20.625,11.463 -29.625,18.792c0.5,-24.146 0.791,-50.542 0.791,-78.879c-0.041,-35.147 -0.5,-73.225 -1.583,-113.488c-1,-40.209 -2.375,-82.804 -5.667,-127.15c-3.416,-44.334 -8.416,-90.408 -19.916,-137.525c-6.084,-23.533 -13.5,-47.45 -26.5,-71.079c-6.667,-11.738 -14.792,-23.504 -26.042,-33.967c-11.083,-10.416 -26.166,-19.175 -42.625,-22.437c-4.083,-1.038 -8.166,-1.384 -12.25,-1.617c-4.208,-0.425 -7.958,-0.246 -11.667,0.009c-7.458,0.183 -15.208,1.654 -22.666,3.57c-15.125,3.975 -29.333,12.075 -40.417,22.092c-22.458,20.267 -34.417,45.071 -43.292,68.562c-16.833,47.588 -22.249,94.154 -26.249,138.696c-3.667,44.571 -4.75,87.3 -5.375,127.588c-0.542,40.229 -0.917,78.166 -0.709,113.4c0.083,25.433 0.5,49.283 1.167,71.395c-4.834,-23.716 -10.333,-49.458 -16.5,-76.912c-8.084,-35.796 -16.667,-74.296 -26.792,-115.429c-10.375,-41.05 -22,-84.467 -39.625,-128.884c-9,-22.162 -19.333,-44.696 -34.792,-66.649c-7.833,-10.9 -16.958,-21.817 -29.541,-31.23c-12.292,-9.362 -29.375,-16.845 -47.458,-17.137c-4.459,-0.308 -8.792,0.446 -13.167,0.796c-4.292,0.654 -8.334,1.783 -12.5,2.796c-7.167,2.466 -14.167,4.97 -21,8.687c-13.667,7.096 -26.167,17.309 -35.875,29.308c-19.709,24.304 -27.625,52.75 -32.125,79.15c-4.042,26.667 -4.417,52.663 -3.209,77.979c1.125,25.35 3.834,50.092 7.126,74.355c6.666,48.579 15.666,95.062 24,140.162c1.208,5.971 1.875,11.325 3.541,17.792c1.292,5.479 2.584,10.941 3.875,16.367c2.542,10.895 5.042,21.683 7.542,32.354c4.833,21.392 9.583,42.316 14.167,62.691c9.083,40.771 17.291,79.392 24.749,115.054c1.584,7.563 3.084,14.917 4.542,22.2c-7.041,2.213 -14.625,4.8 -22.833,7.917c-29.042,11.429 -66.042,28.029 -107.417,60.054c-10.292,8.029 -20.75,17.259 -31.042,28.005c-10.333,10.599 -20.333,23.145 -29.333,37.662c-8.916,14.541 -16.958,31.367 -21.292,50.634c-2.083,9.612 -3.666,19.62 -3.916,29.958c-0.417,5.537 -0.042,9.274 -0,13.879c0.125,4.433 0.25,8.904 0.333,13.417c1.542,36.091 6.875,73.016 15.75,109.283c8.625,36.383 22.334,71.579 37.875,104.937c32.084,66.484 75.834,123.554 120.25,165.888c44.25,42.7 88.334,71.033 119.75,89.633c10.084,5.271 18.792,9.554 26.292,12.992c-1.625,2.195 -3.292,4.417 -4.792,6.917c-3.916,6.245 -6.792,13.962 -8.5,22.245c-1.25,8.971 -1.25,16.1 -0.166,24.096c0.833,7.938 3.333,15.917 6.416,23.705c3.5,7.566 7.75,15.074 13.083,21.529c10.459,13.249 23.667,23.654 37.625,31.937c28.084,16.613 59.292,26.417 91.334,33.791c64.291,14.218 132.958,18.238 201.042,18.384c68.083,-0.134 136.708,-4.108 201,-18.283c32.041,-7.346 63.249,-17.104 91.374,-33.625c13.959,-8.259 27.209,-18.533 37.709,-31.75c5.375,-6.396 9.625,-13.896 13.208,-21.426c3.167,-7.754 5.667,-15.724 6.542,-23.654c0.667,-3.958 0.875,-7.854 0.833,-11.683c0.25,-3.587 -0.25,-8.112 -0.791,-12.333c-1.542,-8.346 -4.417,-16.058 -8.292,-22.38c-2.667,-4.499 -5.625,-8.337 -8.667,-11.908c14.5,-9.2 30.084,-20.487 45.834,-34.604c32.75,-28.617 66.749,-67.754 93.874,-115.529Z" style="fill:#a9bece;fill-rule:nonzero;"/><path d="M324.82,1559.72c-0,89.359 148.583,119.075 331.875,119.075c183.292,0 331.916,-29.716 331.916,-119.075c0,-65.758 -148.624,-119.07 -331.916,-119.07c-183.292,-0 -331.875,53.312 -331.875,119.07Z" style="fill:#fff;fill-rule:nonzero;"/><path d="M353.278,1526.06c0,55.925 136.042,74.521 303.917,74.521c167.875,0 303.958,-18.596 303.958,-74.521c0,-41.154 -136.083,-74.516 -303.958,-74.516c-167.875,-0 -303.917,33.362 -303.917,74.516Z" style="fill:#b8c7e6;fill-rule:nonzero;"/><path d="M362.07,1515.95c13,-12.571 27.917,-21.496 40,-28.804c24.583,-14.405 40.042,-21.938 38.625,-26.288c-1.167,-3.742 -18.625,-3.491 -47.792,5.909c-14.458,4.987 -32.125,11.642 -50.708,25.233c-9.167,6.842 -18.875,15.421 -26.542,28.192c-3.958,6.242 -6.833,13.962 -8.5,22.245c-1.25,8.963 -1.292,16.092 -0.167,24.092c0.834,7.942 3.292,15.921 6.417,23.709c3.5,7.566 7.709,15.07 13.084,21.524c10.458,13.25 23.624,23.659 37.583,31.942c28.125,16.609 59.333,26.412 91.375,33.792c64.292,14.217 132.917,18.233 201,18.379c68.083,-0.133 136.75,-4.112 201.041,-18.279c32.042,-7.346 63.209,-17.108 91.334,-33.63c14,-8.258 27.208,-18.528 37.708,-31.75c5.417,-6.399 9.625,-13.891 13.208,-21.42c3.167,-7.758 5.667,-15.729 6.584,-23.659c0.625,-3.962 0.875,-7.854 0.833,-11.679c0.208,-3.596 -0.292,-8.116 -0.833,-12.337c-1.5,-8.342 -4.417,-16.058 -8.25,-22.379c-7.625,-12.85 -17.292,-21.505 -26.459,-28.396c-18.541,-13.65 -36.208,-20.367 -50.666,-25.367c-29.125,-9.458 -46.625,-9.713 -47.792,-5.975c-1.375,4.35 14.042,11.892 38.625,26.342c12.042,7.317 26.917,16.287 39.875,28.875c6.417,6.204 12.292,13.404 15.542,20.825c3.5,7.629 3.417,13.55 1.375,23.633c-3.667,17.9 -18.708,33.492 -41.292,45.05c-22.375,11.6 -50.166,19.375 -79.541,24.988c-59.167,11.004 -125.292,14.012 -191.292,14.083c-66,-0.083 -132.083,-3.134 -191.209,-14.167c-29.374,-5.641 -57.166,-13.454 -79.499,-25.104c-22.501,-11.646 -37.459,-27.233 -40.959,-45.2c-1.166,-4.371 -1.333,-9.696 -1.333,-12.683c0.416,-3.53 1.083,-7.213 2.917,-10.904c3.333,-7.426 9.25,-14.609 15.708,-20.792Z" style="fill:#303030;fill-rule:nonzero;"/><path d="M31.653,1016.29c0,143.484 54.458,330.638 312.625,488l-61.541,-711.899c-0,-0 -251.084,80.424 -251.084,223.899Z" style="fill:#fff;fill-rule:nonzero;"/><path d="M65.612,987.337c2.375,-11.587 7.25,-22.554 13.124,-32.829c11.834,-20.588 28.25,-38.066 44.542,-52.729c33.042,-29.421 65.084,-49.083 89.709,-64.612c50.041,-30.417 72.583,-44.625 69.708,-53.234c-1.292,-4.146 -9,-6.146 -23.75,-4.613c-14.708,1.551 -36.542,6.542 -65.792,17.613c-29,11.434 -66.041,28.03 -107.416,60.058c-10.292,8.029 -20.75,17.259 -31,28.005c-10.376,10.599 -20.334,23.145 -29.375,37.662c-8.875,14.542 -16.917,31.363 -21.292,50.629c-2.083,9.613 -3.625,19.625 -3.875,29.959c-0.417,5.537 -0.042,9.279 -0,13.879c0.083,4.429 0.208,8.904 0.333,13.417c1.5,36.091 6.833,73.016 15.75,109.283c8.584,36.383 22.292,71.579 37.834,104.941c32.125,66.475 75.875,123.555 120.25,165.88c44.291,42.699 88.333,71.033 119.791,89.633c32.542,17.062 52.542,24.908 54.792,21.217c2.291,-3.788 -13.292,-18.733 -40.583,-41.4c-26.209,-24.155 -64.125,-56.563 -101.417,-100.255c-37.459,-43.395 -73.459,-98.141 -99.584,-159.183c-12.583,-30.671 -23.791,-62.5 -30.625,-95.175c-7.166,-32.562 -11.5,-65.466 -12.833,-97.517c-0.125,-4.008 -0.208,-7.97 -0.333,-11.899c-0.042,-3.755 -0.417,-8.292 -0.083,-10.942c0.083,-6.084 1,-11.992 2.125,-17.788Z" style="fill:#303030;fill-rule:nonzero;"/><path d="M965.528,697.383c-82.75,13.479 -138.708,92.604 -107.708,282.738l299.583,-48.813c-30.958,-190.146 -109.166,-247.408 -191.875,-233.925Z" style="fill:#fff;fill-rule:nonzero;"/><path d="M1163.15,847.279c-1.583,-7.496 -3.458,-15.346 -6.125,-23.408c-9.666,-32.296 -25.416,-70.129 -54.792,-104.917c-15.083,-16.975 -33.999,-32.867 -57.083,-43.575c-22.958,-10.8 -49.958,-15.446 -75.75,-12.492c-25.375,2.783 -50.333,11.517 -71.5,26.692c-21.125,15.021 -36.666,35.8 -46.625,56.717c-10.083,20.999 -15.667,42.258 -18.25,62.091c-0.667,4.967 -1.5,9.867 -1.916,14.675c-0.251,4.792 -0.5,9.509 -0.751,14.146c-0.708,9.292 -0.333,18.142 0,26.621c0.167,4.229 0.292,8.379 0.459,12.425c0.417,4.004 0.875,7.913 1.292,11.725c0.916,7.6 1.541,14.829 2.791,21.504c2.625,13.313 4.75,24.896 7.709,34.179c5.833,18.592 11,28.709 15.208,28.013c4.167,-0.692 6.375,-11.934 6.958,-30.721c0.292,-9.4 1.083,-20.725 1.167,-33.562c0.125,-6.421 0.75,-13.2 1.042,-20.326c0.166,-3.558 0.333,-7.204 0.5,-10.937c0.374,-3.683 0.75,-7.458 1.166,-11.308c0.708,-7.692 1.292,-15.7 2.833,-23.729c0.625,-4.038 1.251,-8.142 1.917,-12.313c0.75,-4.112 1.875,-8.159 2.75,-12.325c3.625,-16.667 9.5,-33.271 17.708,-48.288c8.209,-15.062 19.167,-28.187 32.959,-37.466c13.625,-9.309 30.666,-15.142 48.083,-17.042c17.042,-1.887 34,0.771 49.625,7.575c15.667,6.771 29.959,17.492 42.417,30.046c24.458,25.975 41.625,57.662 54.167,85.838c3.375,6.958 6.124,13.891 8.708,20.55c2.583,6.654 5.417,12.846 7.542,18.895c4.208,12.125 8.666,22.567 11.875,31.379c6.583,17.592 12.25,27.555 16.416,26.88c4.208,-0.675 5.917,-11.909 5.459,-31.413c-0.126,-9.75 -1.875,-21.408 -3.667,-34.879c-0.917,-6.729 -2.709,-13.758 -4.292,-21.25Z" style="fill:#303030;fill-rule:nonzero;"/><path d="M664.736,849.362c0,144.554 67.959,261.738 151.792,261.738c83.792,-0 151.75,-117.184 151.75,-261.738c0,-192.649 -67.958,-261.741 -151.75,-261.741c-83.833,-0 -151.792,69.092 -151.792,261.741Z" style="fill:#fff;fill-rule:nonzero;"/><path d="M917.403,601.166c-11.583,-12.874 -26.542,-24.829 -44.417,-33.603c-17.791,-8.855 -39.083,-13.776 -60.041,-13.363c-20.25,-0.171 -41.792,4.266 -61.25,13.404c-19.5,9.108 -36.708,22.783 -49.875,38.454c-3.292,3.896 -6.042,8.071 -9.042,12.1l-4.333,6.088l-3.583,6.333c-2.376,4.225 -4.709,8.421 -7.001,12.587c-1.874,4.292 -3.708,8.555 -5.499,12.779c-14.042,33.976 -18.709,66.667 -20.75,94.18c-3.001,55.254 5.208,90.833 13.124,90.783c9.042,0.063 13.834,-35.421 24.792,-85.333c5.834,-24.721 13.333,-53.354 26.459,-79.954c1.666,-3.296 3.291,-6.617 4.999,-9.971c1.917,-3.079 3.876,-6.183 5.876,-9.304l2.875,-4.717l3.375,-4.25c2.291,-2.784 4.375,-5.829 6.791,-8.492c9.584,-10.658 20.834,-19.075 33.292,-24.958c12.458,-5.821 26.292,-9.179 40.833,-9.467c13.792,-0.7 26.875,1.629 39.167,6.7c24.75,9.867 44.25,30 58.583,49.213c14.333,19.508 24.084,38.454 31.334,51.779c7.333,13.333 12.749,21.137 17.041,20.158c4,-0.904 5.875,-10.45 4.292,-26.716c-1.5,-16.217 -6.833,-39.292 -19.959,-65.188c-6.666,-12.892 -15.499,-26.337 -27.083,-39.242Z" style="fill:#303030;fill-rule:nonzero;"/><path d="M225.862,145.542c-113.626,35.704 -70.959,227.508 -42.542,393.683c41.167,241.012 70.041,466.462 70.041,466.462l235.709,-208.483c0,-0 -51.042,-152.129 -102.208,-352.171c-34.709,-135.675 -71.584,-327.6 -161,-299.491Z" style="fill:#fff;fill-rule:nonzero;"/><path d="M587.862,35.541c-123.667,-6.25 -122.126,189.067 -128.042,364.271c-8.584,254.109 -7.625,370.3 -7.625,370.3l254.833,-19.95c0,0 -2.25,-147.558 -12.416,-362.029c-6.917,-145.467 -13.917,-347.896 -106.75,-352.592Z" style="fill:#fff;fill-rule:nonzero;"/><path d="M656.695,698.362c-279.542,0 -506.125,113.517 -506.125,454.842c0,251.192 226.583,454.825 506.125,454.825c312.333,-0 575.458,-234.117 500.708,-676.721c-24.208,-143.504 -250.333,-232.946 -500.708,-232.946Z" style="fill:#fff;fill-rule:nonzero;"/><path d="M1087.07,1335.8c-22.792,44.175 -51.083,81.479 -78.417,110.808c-27,29.867 -54.166,50.259 -72.25,66.163c-18.958,14.57 -29.417,24.562 -27.5,28.391c1.917,3.746 15.917,0.346 39.25,-9.371c22.375,-11.058 54.542,-28.349 87.042,-57.562c32.792,-28.609 66.792,-67.75 93.917,-115.521c27.291,-47.608 47.416,-103.333 58.499,-160.387c10.667,-57.205 12.376,-115.201 9.626,-168.867c-2.542,-26.725 -4,-52.675 -8.75,-76.738c-2.042,-12.062 -4.042,-23.795 -5.959,-35.145c-2.083,-11.8 -5.292,-22.909 -8.291,-33.25c-12.459,-41.484 -27.875,-73.996 -40.834,-95.488c-13.041,-21.492 -23.25,-31.975 -26.875,-30.012c-8.041,4.229 15.083,54.925 30.5,134.637c1.834,9.975 3.792,20.092 4.708,30.638c1.042,10.995 2.125,22.358 3.209,34.041c3.041,23.288 3.041,47.938 4.458,73.313c0.5,50.737 -2.166,104.671 -11.958,157.25c-10.209,52.416 -27.459,103.05 -50.375,147.1Z" style="fill:#303030;fill-rule:nonzero;"/><path d="M471.57,959.033c-17.125,0.858 -19.292,112.792 -6.5,223.83c6.208,55.491 16.291,110.712 27.75,151.382c11.583,40.722 24.333,66.584 32.416,64.646c8.459,-2.004 8.292,-30.1 5.334,-71.27c-2.958,-41.246 -8.667,-95.817 -14.792,-150.525c-12.542,-109.342 -27.333,-218.929 -44.208,-218.063Z" style="fill:#303030;fill-rule:nonzero;"/><path d="M679.361,1398.89c34.042,-0.77 24.084,-440.629 -9.916,-439.858c-34.042,0.771 -24.125,440.625 9.916,439.858Z" style="fill:#303030;fill-rule:nonzero;"/><path d="M835.945,1177.71c-5.084,54.558 -10.583,108.942 -13.417,150.084c-2.791,41.141 -3.167,68.937 5,71.095c8.292,2.201 21.375,-23.783 32.75,-64.5c11.375,-40.695 21.334,-96.058 26.5,-151.783c11.167,-111.604 3.209,-223.562 -13.5,-223.575c-17.333,-0.087 -26.416,109.746 -37.333,218.679Z" style="fill:#303030;fill-rule:nonzero;"/><path d="M256.57,1005.03l-22.75,-178.058c-37.625,27.716 -180.125,123.725 22.75,178.058Z" style="fill:#b8c7e6;fill-rule:nonzero;"/><path d="M201.362,182.904c5.541,-6.908 12.166,-12.358 19.875,-16.504c3.791,-2.175 8.166,-3.692 12.333,-5.271c1.75,-0.3 3.5,-0.925 5.125,-1.209c1.625,0.038 3.25,-0.558 4.791,-0.329c6.001,0.101 12.042,2.184 18.792,6.984c6.625,4.75 13.209,11.92 19.167,20.033c12,16.338 21.875,36.112 30.458,56.092c17.125,40.25 29.792,82.121 41.458,121.933c11.375,40.246 22.126,78.308 32.042,113.438c40.25,140.629 67.375,234.17 75.375,232.525c8.667,-1.775 -6.125,-98.888 -38.25,-241.938c-8.083,-35.795 -16.625,-74.3 -26.791,-115.429c-10.375,-41.05 -21.959,-84.467 -39.625,-128.883c-9.001,-22.163 -19.292,-44.696 -34.792,-66.65c-7.792,-10.9 -16.959,-21.817 -29.5,-31.229c-12.333,-9.363 -29.375,-16.846 -47.459,-17.142c-4.499,-0.308 -8.791,0.446 -13.208,0.8c-4.25,0.654 -8.333,1.783 -12.458,2.796c-7.208,2.466 -14.208,4.971 -21.042,8.687c-13.667,7.092 -26.167,17.309 -35.833,29.304c-19.75,24.304 -27.667,52.75 -32.125,79.151c-4.042,26.67 -4.417,52.666 -3.25,77.983c1.125,25.35 3.833,50.091 7.125,74.354c6.666,48.575 15.708,95.058 24.042,140.162c1.166,5.971 1.874,11.325 3.541,17.788c1.292,5.483 2.583,10.942 3.875,16.371c2.5,10.891 5.042,21.679 7.5,32.354c4.834,21.392 9.584,42.317 14.209,62.688c9.083,40.774 17.291,79.395 24.75,115.057c14.749,71.346 25.875,130.942 32.833,172.709c7.125,41.717 9.958,65.771 14.5,65.946c3.958,0.208 8.625,-24.667 7.75,-68c-0.709,-43.275 -6.708,-104.546 -17.375,-177.333c-5.417,-36.38 -11.875,-75.688 -19.458,-117.092c-3.834,-20.7 -7.834,-41.946 -12.125,-63.629c-2.209,-10.834 -4.417,-21.788 -6.667,-32.851c-1.167,-5.529 -2.333,-11.087 -3.5,-16.674c-1.125,-4.534 -1.792,-10.517 -2.708,-15.779c-7.251,-45.038 -15.459,-91.551 -21.292,-138.221c-2.917,-23.355 -5.292,-46.813 -6.167,-70.021c-1,-23.208 -0.416,-46.221 2.834,-67.838c3.541,-21.367 9.958,-41.475 21.25,-55.133Z" style="fill:#303030;fill-rule:nonzero;"/><path d="M695.695,129.358c-6.083,-23.533 -13.5,-47.45 -26.542,-71.079c-6.625,-11.737 -14.75,-23.508 -26,-33.967c-11.125,-10.416 -26.166,-19.175 -42.625,-22.437c-4.125,-1.042 -8.167,-1.384 -12.25,-1.621c-4.25,-0.425 -8,-0.242 -11.708,0.008c-7.458,0.188 -15.167,1.659 -22.667,3.575c-15.083,3.971 -29.292,12.071 -40.375,22.092c-22.5,20.267 -34.458,45.071 -43.333,68.562c-16.834,47.584 -22.25,94.155 -26.25,138.697c-3.667,44.57 -4.75,87.299 -5.375,127.583c-0.542,40.233 -0.875,78.167 -0.708,113.404c0.333,70.337 2.833,129.071 7.25,170.175c4.125,41.029 11.374,64.716 15.999,63.675c3.709,-0.854 4.084,-23.575 6.334,-64.346c2.125,-40.692 5.125,-98.808 8.708,-168.546c1.959,-34.942 4.084,-72.796 6.292,-112.825c2.208,-39.962 4.625,-81.908 9.167,-124.571c4.708,-42.429 11.166,-86.516 25.666,-125.671c7.375,-19.25 17.25,-37.004 29.792,-47.9c6.208,-5.533 12.875,-9.208 20.417,-11.137c7.291,-1.921 16.708,-2.471 22.708,-1.142c6.5,1.334 12.458,4.525 18.375,9.967c5.917,5.404 11.416,12.896 16.25,21.354c9.666,17.133 16.583,37.737 22.166,58.612c10.834,42.201 16.584,86.359 20.875,129.226c4.292,42.941 6.959,84.966 9.542,124.979c2.542,39.987 4.917,77.788 7.125,112.683c8.625,139.642 14,232.904 22.5,233.004c8.5,0.117 15.917,-93.591 15.792,-234.191c-0.042,-35.146 -0.5,-73.225 -1.542,-113.488c-1.041,-40.208 -2.375,-82.804 -5.708,-127.15c-3.417,-44.333 -8.417,-90.408 -19.875,-137.525Z" style="fill:#303030;fill-rule:nonzero;"/></g></svg>